<mxfile host="Electron" modified="2024-04-24T10:15:00.959Z" agent="Mozilla/5.0 (X11; Linux x86_64) AppleWebKit/537.36 (KHTML, like Gecko) draw.io/24.2.5 Chrome/120.0.6099.109 Electron/28.1.0 Safari/537.36" etag="r35bqBrOIqw80YYtdkpP" version="24.2.5" type="device">
  <diagram name="Page-1" id="6Gdo2ZwKGSATiekE2Nh-">
    <mxGraphModel dx="1362" dy="843" grid="1" gridSize="10" guides="1" tooltips="1" connect="1" arrows="1" fold="1" page="1" pageScale="1" pageWidth="850" pageHeight="1100" math="0" shadow="0">
      <root>
        <mxCell id="0" />
        <mxCell id="1" parent="0" />
        <mxCell id="3aPTGr1od_2JGdrwEAC_-13" value="" style="rounded=0;whiteSpace=wrap;html=1;dashed=1;dashPattern=12 12;fillColor=#CCFF99;strokeColor=#b46504;fillStyle=cross-hatch;fontStyle=1" parent="1" vertex="1">
          <mxGeometry x="320" y="360" width="260" height="260" as="geometry" />
        </mxCell>
        <mxCell id="3aPTGr1od_2JGdrwEAC_-5" style="edgeStyle=orthogonalEdgeStyle;rounded=0;orthogonalLoop=1;jettySize=auto;html=1;exitX=1;exitY=0.5;exitDx=0;exitDy=0;entryX=1;entryY=0.5;entryDx=0;entryDy=0;fontStyle=1" parent="1" source="3aPTGr1od_2JGdrwEAC_-1" target="3aPTGr1od_2JGdrwEAC_-2" edge="1">
          <mxGeometry relative="1" as="geometry" />
        </mxCell>
        <mxCell id="3aPTGr1od_2JGdrwEAC_-6" style="edgeStyle=orthogonalEdgeStyle;rounded=0;orthogonalLoop=1;jettySize=auto;html=1;exitX=1;exitY=0.5;exitDx=0;exitDy=0;entryX=1;entryY=0.5;entryDx=0;entryDy=0;fontStyle=1" parent="1" source="3aPTGr1od_2JGdrwEAC_-1" target="3aPTGr1od_2JGdrwEAC_-3" edge="1">
          <mxGeometry relative="1" as="geometry" />
        </mxCell>
        <mxCell id="3aPTGr1od_2JGdrwEAC_-11" style="edgeStyle=orthogonalEdgeStyle;rounded=0;orthogonalLoop=1;jettySize=auto;html=1;exitX=0.5;exitY=1;exitDx=0;exitDy=0;entryX=0.5;entryY=0;entryDx=0;entryDy=0;fontStyle=1" parent="1" source="3aPTGr1od_2JGdrwEAC_-1" target="3aPTGr1od_2JGdrwEAC_-2" edge="1">
          <mxGeometry relative="1" as="geometry" />
        </mxCell>
        <mxCell id="3aPTGr1od_2JGdrwEAC_-1" value="&lt;span&gt;&lt;sup&gt;&lt;font style=&quot;font-size: 12px;&quot;&gt;Environment&lt;/font&gt;&lt;/sup&gt;&lt;/span&gt;" style="rounded=0;whiteSpace=wrap;html=1;fontStyle=1" parent="1" vertex="1">
          <mxGeometry x="365" y="170" width="175" height="60" as="geometry" />
        </mxCell>
        <mxCell id="3aPTGr1od_2JGdrwEAC_-9" style="edgeStyle=orthogonalEdgeStyle;rounded=0;orthogonalLoop=1;jettySize=auto;html=1;exitX=0.5;exitY=1;exitDx=0;exitDy=0;entryX=0.5;entryY=0;entryDx=0;entryDy=0;fontStyle=1" parent="1" source="3aPTGr1od_2JGdrwEAC_-2" target="3aPTGr1od_2JGdrwEAC_-3" edge="1">
          <mxGeometry relative="1" as="geometry" />
        </mxCell>
        <mxCell id="3aPTGr1od_2JGdrwEAC_-2" value="Critic&lt;br&gt;(Value Function)" style="rounded=0;whiteSpace=wrap;html=1;fontStyle=1" parent="1" vertex="1">
          <mxGeometry x="365" y="390" width="175" height="60" as="geometry" />
        </mxCell>
        <mxCell id="3aPTGr1od_2JGdrwEAC_-7" style="edgeStyle=orthogonalEdgeStyle;rounded=0;orthogonalLoop=1;jettySize=auto;html=1;exitX=0;exitY=0.5;exitDx=0;exitDy=0;entryX=0;entryY=0.5;entryDx=0;entryDy=0;fontStyle=1" parent="1" source="3aPTGr1od_2JGdrwEAC_-3" target="3aPTGr1od_2JGdrwEAC_-2" edge="1">
          <mxGeometry relative="1" as="geometry" />
        </mxCell>
        <mxCell id="3aPTGr1od_2JGdrwEAC_-8" style="edgeStyle=orthogonalEdgeStyle;rounded=0;orthogonalLoop=1;jettySize=auto;html=1;exitX=0;exitY=0.5;exitDx=0;exitDy=0;entryX=0;entryY=0.5;entryDx=0;entryDy=0;fontStyle=1" parent="1" source="3aPTGr1od_2JGdrwEAC_-3" target="3aPTGr1od_2JGdrwEAC_-1" edge="1">
          <mxGeometry relative="1" as="geometry" />
        </mxCell>
        <mxCell id="3aPTGr1od_2JGdrwEAC_-10" style="edgeStyle=orthogonalEdgeStyle;rounded=0;orthogonalLoop=1;jettySize=auto;html=1;exitX=0.5;exitY=0;exitDx=0;exitDy=0;entryX=0.5;entryY=1;entryDx=0;entryDy=0;fontStyle=1" parent="1" source="3aPTGr1od_2JGdrwEAC_-3" target="3aPTGr1od_2JGdrwEAC_-2" edge="1">
          <mxGeometry relative="1" as="geometry" />
        </mxCell>
        <mxCell id="3aPTGr1od_2JGdrwEAC_-3" value="Actor&lt;br&gt;(Policy Function)" style="rounded=0;whiteSpace=wrap;html=1;fontStyle=1" parent="1" vertex="1">
          <mxGeometry x="365" y="500" width="175" height="60" as="geometry" />
        </mxCell>
        <mxCell id="3aPTGr1od_2JGdrwEAC_-16" value="&lt;font color=&quot;#000000&quot; style=&quot;font-size: 18px; background-color: rgb(255, 255, 255);&quot;&gt;Stock Switching Agent&lt;/font&gt;" style="text;html=1;align=center;verticalAlign=middle;whiteSpace=wrap;rounded=0;fontStyle=1" parent="1" vertex="1">
          <mxGeometry x="360" y="580" width="180" height="30" as="geometry" />
        </mxCell>
        <mxCell id="3aPTGr1od_2JGdrwEAC_-18" value="&lt;span&gt;States&lt;/span&gt;" style="text;html=1;align=center;verticalAlign=middle;whiteSpace=wrap;rounded=0;rotation=90;fontStyle=1" parent="1" vertex="1">
          <mxGeometry x="517" y="280" width="60" height="40" as="geometry" />
        </mxCell>
        <mxCell id="3aPTGr1od_2JGdrwEAC_-19" value="&lt;span&gt;Rewards&lt;/span&gt;" style="text;html=1;align=center;verticalAlign=middle;whiteSpace=wrap;rounded=0;rotation=90;fontStyle=1" parent="1" vertex="1">
          <mxGeometry x="437" y="280" width="60" height="40" as="geometry" />
        </mxCell>
        <mxCell id="3aPTGr1od_2JGdrwEAC_-20" value="&lt;span&gt;Actions&lt;/span&gt;" style="text;html=1;align=center;verticalAlign=middle;whiteSpace=wrap;rounded=0;rotation=90;fontStyle=1" parent="1" vertex="1">
          <mxGeometry x="330" y="280" width="60" height="40" as="geometry" />
        </mxCell>
      </root>
    </mxGraphModel>
  </diagram>
</mxfile>
